<svg width="112" height="33" viewBox="0 0 112 33" fill="none" xmlns="http://www.w3.org/2000/svg">
<g clip-path="url(#clip0_1132_10793)">
<path fill-rule="evenodd" clip-rule="evenodd" d="M98.0395 1.79666C98.0395 1.55387 97.9909 1.31108 97.8938 1.09256C97.8209 0.874052 97.6753 0.679818 97.5053 0.509864C97.3354 0.364188 97.1411 0.242792 96.9226 0.145675C96.7041 0.0485584 96.4613 0 96.2185 0C95.7572 0.0242792 95.3202 0.194234 94.9803 0.534143C94.8103 0.704097 94.6889 0.874052 94.5918 1.09256C94.4947 1.31108 94.4461 1.55387 94.4461 1.79666C94.4461 2.03945 94.4947 2.25797 94.5918 2.47648C94.6889 2.69499 94.8103 2.86495 94.9803 3.0349C95.3202 3.37481 95.7572 3.56905 96.2185 3.56905C96.7041 3.56905 97.1654 3.37481 97.5053 3.0349C97.6753 2.86495 97.7967 2.69499 97.8938 2.47648C97.9909 2.25797 98.0395 2.03945 98.0395 1.79666ZM110.058 19.3263C110.835 18.8407 111.49 18.2094 112 17.4568C111.816 17.2861 111.661 17.1581 111.534 17.0534L111.534 17.0533C111.426 16.9644 111.339 16.8924 111.272 16.8255L110.859 16.4128C110.713 16.2185 110.47 16.0728 110.228 16.0486C109.975 16.0486 109.723 16.2655 109.409 16.5354L109.354 16.5827C108.989 16.9469 108.552 17.2382 108.067 17.4568C107.557 17.6753 106.999 17.7724 106.44 17.7724H106.392C103.939 17.7724 101.924 15.7815 101.924 13.305V13.2565V13.2079C101.924 10.7557 103.939 8.7648 106.392 8.74052H106.44C106.999 8.71624 107.557 8.83764 108.067 9.05615C108.552 9.27466 108.989 9.56601 109.402 9.90592L109.448 9.94239C109.791 10.2173 110.069 10.4401 110.325 10.4401C110.543 10.4158 110.738 10.2944 110.859 10.1244L111.369 9.61457L111.976 9.03187C111.466 8.27922 110.81 7.64796 110.033 7.16237C108.892 6.45827 107.606 6.09409 106.27 6.11837C106.027 6.11837 105.785 6.14264 105.542 6.16692C105.323 6.1912 105.105 6.21548 104.838 6.26404C104.279 6.38544 103.721 6.57967 103.187 6.82246C102.944 6.94386 102.701 7.06525 102.483 7.21093C99.2534 9.2261 98.1852 13.4264 100.055 16.7284C100.637 17.7724 101.487 18.6464 102.483 19.2777C102.725 19.4234 102.944 19.5448 103.187 19.6662C103.721 19.909 104.279 20.1032 104.862 20.2246C105.105 20.2732 105.323 20.2974 105.566 20.3217C105.809 20.3703 106.052 20.3703 106.294 20.3703C107.63 20.3945 108.941 20.0304 110.058 19.3263ZM97.6995 7.18667V20.2975H94.7375V6.4583H96.9712C97.3596 6.4583 97.6995 6.77393 97.6995 7.18667ZM93.2565 19.3263L92.3581 17.8452C92.347 17.8341 92.3359 17.8217 92.3239 17.8083L92.3237 17.8081C92.2834 17.7631 92.2331 17.7071 92.1396 17.651C92.1153 17.6267 92.0668 17.6267 92.0425 17.6267C92.007 17.6267 91.9844 17.6397 91.9558 17.6562L91.9558 17.6563C91.9453 17.6623 91.9341 17.6688 91.9211 17.6753C91.9096 17.683 91.8974 17.6912 91.8847 17.7C91.8169 17.7463 91.7319 17.8043 91.6298 17.8452C91.4841 17.9181 91.3627 17.9666 91.217 18.0152C91.0228 18.088 90.8285 18.1123 90.61 18.1123C90.2216 18.1366 89.8088 17.9666 89.5417 17.651C89.2747 17.3111 89.129 16.8741 89.1533 16.437V8.81335L92.3824 8.44917H92.4067C92.698 8.44917 92.9408 8.20637 92.9408 7.91502V6.48255H89.1776V1.96661H87.6237C87.5023 1.94233 87.3566 1.99089 87.2595 2.06373C87.1624 2.13657 87.1138 2.23369 87.0895 2.35508L86.3369 6.43399L84.0546 6.79818V7.96358C84.0304 8.08498 84.0789 8.23065 84.176 8.32777C84.2732 8.42489 84.3703 8.44917 84.4917 8.44917H86.1912V16.7041C86.1912 17.8695 86.5068 18.8164 87.1381 19.4477C87.7694 20.0789 88.6677 20.4188 89.8331 20.4188C90.4886 20.4188 91.1442 20.2974 91.7754 20.1032C92.3096 19.9332 92.8194 19.6662 93.2565 19.3263ZM82.695 14.519C82.8892 14.956 82.9863 15.4173 82.962 15.9029C82.962 16.5342 82.8407 17.1411 82.5979 17.7238C82.3551 18.2823 82.0152 18.7678 81.5538 19.1563C81.044 19.5691 80.4856 19.909 79.8543 20.1032C79.0774 20.346 78.2762 20.4674 77.4749 20.4431C77.0136 20.4431 76.5281 20.3946 76.0667 20.3217C75.6297 20.2489 75.1684 20.1275 74.7557 19.9575C74.3429 19.8119 73.9545 19.6419 73.5903 19.4234C73.3232 19.2534 73.0561 19.0835 72.8133 18.8892L73.4932 17.7481C73.566 17.6267 73.6631 17.5296 73.7602 17.481C73.8816 17.4082 74.0273 17.3839 74.173 17.3839C74.3429 17.3839 74.5129 17.4325 74.6586 17.5296C74.7971 17.6286 74.968 17.7276 75.1844 17.8529L75.1845 17.853C75.2334 17.8813 75.2846 17.911 75.3384 17.9424C75.6297 18.1123 75.9454 18.2337 76.261 18.3551C76.698 18.5008 77.1593 18.5736 77.6206 18.5493C78.0091 18.5493 78.3976 18.5008 78.7617 18.3794C79.0531 18.2823 79.3202 18.1366 79.563 17.9424C79.7815 17.7724 79.9514 17.5539 80.0485 17.3111C80.1457 17.0683 80.1942 16.8255 80.1942 16.5584C80.2185 16.1942 80.0728 15.8301 79.83 15.563C79.5872 15.2959 79.2959 15.1017 78.956 14.956C78.5675 14.7861 78.179 14.6404 77.7906 14.519C77.3535 14.3976 76.9165 14.2519 76.5038 14.1062C76.0667 13.9606 75.654 13.7906 75.2413 13.5964C74.8528 13.4021 74.4886 13.1593 74.173 12.868C73.8573 12.5766 73.6145 12.2125 73.4446 11.824C73.3475 11.6055 73.2746 11.387 73.2261 11.1442C73.1775 10.8771 73.1532 10.5857 73.1532 10.3187C73.1532 9.78453 73.2746 9.25039 73.4932 8.74053C73.7117 8.23066 74.0516 7.79364 74.4643 7.42945C74.9499 7.04098 75.484 6.72535 76.0667 6.53112C77.6692 6.04553 79.3687 6.09409 80.9469 6.65251C81.6024 6.91959 82.2094 7.28377 82.7435 7.74508L82.0637 8.81336C82.0152 8.91048 81.9423 8.98332 81.8452 9.05616C81.7724 9.10472 81.6752 9.10472 81.5781 9.10472C81.4325 9.10472 81.2868 9.05616 81.1411 8.98332L80.8012 8.81336L80.4613 8.66769C80.1699 8.54629 79.8786 8.4249 79.563 8.35206C79.1745 8.25494 78.7617 8.20638 78.349 8.20638C77.7177 8.18211 77.1108 8.35206 76.6009 8.69197C76.1639 8.98332 75.8968 9.49318 75.9211 10.0273C75.9211 10.3672 76.0425 10.7071 76.2853 10.9742C76.5281 11.217 76.8437 11.4355 77.1593 11.5812C77.5478 11.7512 77.9362 11.8968 78.3247 12.0182C78.7617 12.1396 79.1744 12.2853 79.5872 12.4309L79.5872 12.431C80.0243 12.5766 80.437 12.7466 80.8498 12.9408C81.2382 13.1108 81.6024 13.3536 81.918 13.6207C82.2822 13.8149 82.525 14.1548 82.695 14.519ZM71.8422 13.0137C71.8665 12.7951 71.8665 12.6009 71.8665 12.3824C71.8665 12.0182 71.8422 11.654 71.8179 11.3627C71.7451 10.8042 71.6237 10.2701 71.4294 9.76024C71.1624 9.00758 70.7253 8.35204 70.1912 7.79362C69.657 7.25948 69.0258 6.84673 68.3217 6.57966C67.5448 6.28831 66.7435 6.16691 65.918 6.16691C64.9469 6.14264 64 6.33687 63.1259 6.70106C62.3247 7.04097 61.6206 7.52655 61.0379 8.15781C60.4552 8.78907 60.0182 9.51745 59.7268 10.3187C59.4112 11.1927 59.2655 12.091 59.2655 13.0137C59.2413 14.1062 59.4355 15.1988 59.7997 16.2428C60.1153 17.0926 60.6009 17.8938 61.2322 18.5493C61.8391 19.1563 62.5918 19.6419 63.393 19.9575C64.2671 20.2731 65.1654 20.4431 66.088 20.4431C66.5979 20.4431 67.1077 20.4188 67.6176 20.346C68.1275 20.2731 68.6373 20.1517 69.1472 19.9818C69.657 19.8118 70.1184 19.569 70.5797 19.2777C70.9924 19.0106 71.3566 18.7193 71.6722 18.3551L70.7982 17.2382C70.7496 17.1654 70.6768 17.1168 70.6039 17.0683C70.5311 17.044 70.434 17.0197 70.3611 17.0197C70.1669 17.0197 69.997 17.0926 69.827 17.1897C69.6085 17.3353 69.3172 17.481 69.0259 17.6266L69.0258 17.6267C68.6859 17.7967 68.2974 17.9423 67.9332 18.0637C67.4234 18.2094 66.9135 18.2822 66.4036 18.2822C65.1897 18.2822 64.2185 17.8938 63.4901 17.1654C62.7617 16.437 62.3247 15.2959 62.2276 13.7663L62.2033 13.4992H71.308C71.4052 13.4992 71.5023 13.475 71.5994 13.4507C71.6722 13.4264 71.7208 13.3778 71.7451 13.3293C71.7936 13.2322 71.8422 13.1351 71.8422 13.0137ZM69.2443 11.6055V11.8483H62.2033L62.2519 11.5569C62.4218 10.4643 62.8103 9.61456 63.4173 9.00758C64.0243 8.4006 64.874 8.08497 65.9423 8.08497C66.4522 8.08497 66.9378 8.18209 67.3991 8.37632C67.8118 8.57056 68.1517 8.81335 68.4431 9.15326C68.7344 9.46889 68.9287 9.85736 69.0501 10.2701C69.1715 10.7071 69.2443 11.1442 69.2443 11.6055ZM58.1487 23.6965C57.8331 23.5266 57.5174 23.3809 57.1775 23.2352C56.5463 22.9924 55.8907 22.7739 55.2352 22.6039C54.0698 22.3369 52.9044 22.1426 51.7147 22.0455C51.4251 22.0133 51.1248 22.0025 50.828 21.9918H50.8279C50.6769 21.9863 50.5267 21.9809 50.3794 21.9727C49.6753 21.9484 48.9954 21.8998 48.2913 21.8027C47.6601 21.7056 47.0531 21.5357 46.4461 21.3171C46.1791 21.22 45.9363 21.1229 45.6935 20.9772C45.5478 20.9044 45.4264 20.8073 45.305 20.7102L45.305 20.7102L45.2079 20.6373C45.0865 20.5402 44.9894 20.4188 44.8923 20.2974C44.6495 19.8847 44.5281 19.3991 44.5523 18.9135C44.5523 18.6707 44.6009 18.4279 44.6737 18.1851C44.7709 17.9181 44.8923 17.6753 45.0622 17.4325C45.2564 17.1654 45.475 16.9226 45.7177 16.7284C46.0091 16.4856 46.3247 16.2913 46.6404 16.1214L47.0531 15.9029L46.6404 15.6844C45.8391 15.2716 45.1836 14.6646 44.698 13.912C44.2124 13.135 43.9696 12.2367 43.9939 11.3141C43.9696 9.80879 44.6495 8.4006 45.8149 7.47799C46.4218 6.9924 47.1259 6.62822 47.8786 6.4097C48.7284 6.14263 49.6267 6.02123 50.5008 6.04551C51.1806 6.04551 51.8604 6.11835 52.5159 6.26403C53.0986 6.4097 53.6813 6.62822 54.2155 6.89529L54.264 6.91957H58.9742V8.20636C58.9985 8.35204 58.9499 8.52199 58.8528 8.64339C58.7071 8.78907 58.5129 8.8619 58.2944 8.88618L56.4734 9.22609L56.5706 9.49316L56.5706 9.49323C56.6677 9.78456 56.7648 10.0759 56.8133 10.3672C56.8619 10.6828 56.9105 11.0228 56.9105 11.3384C56.9347 12.8194 56.2549 14.2519 55.0895 15.1745C54.4825 15.6601 53.8027 16 53.0501 16.2428C52.2246 16.5099 51.3505 16.6313 50.4765 16.6313C49.8695 16.6313 49.2382 16.5827 48.6555 16.4613L48.5584 16.437L48.4856 16.4856C47.8786 16.8498 47.563 17.2868 47.563 17.7724C47.563 18.1851 47.7815 18.5736 48.1699 18.7435C48.5827 18.9378 49.044 19.0592 49.5053 19.1077C50.088 19.1806 50.695 19.2049 51.302 19.2049C52.0061 19.2049 52.6616 19.2291 53.2929 19.2777C53.9727 19.3262 54.6282 19.4234 55.2838 19.569C55.8665 19.6904 56.4492 19.9089 56.959 20.2003C57.4446 20.4916 57.8331 20.8801 58.1244 21.3414C58.4401 21.9241 58.5857 22.5554 58.5615 23.2109C58.5615 23.4334 58.5411 23.6354 58.519 23.8545L58.5129 23.915V23.9879C58.4845 23.9594 58.4477 23.931 58.4173 23.9075L58.4172 23.9074L58.4172 23.9074L58.4171 23.9073C58.3956 23.8907 58.3773 23.8765 58.3672 23.8665C58.2944 23.7693 58.2215 23.7208 58.1487 23.6965ZM53.5842 12.6252C53.7299 12.2367 53.8027 11.824 53.7784 11.4112C53.827 10.61 53.5114 9.80879 52.953 9.22609C52.3945 8.69195 51.5933 8.42488 50.5008 8.42488C49.4082 8.42488 48.607 8.69195 48.0728 9.22609C47.5144 9.80879 47.1988 10.61 47.2473 11.4112C47.2473 11.824 47.3202 12.2367 47.4658 12.6252C47.5872 12.9894 47.8058 13.3293 48.0971 13.5964C48.3885 13.8877 48.7526 14.1062 49.1411 14.2276C49.6024 14.3733 50.0637 14.4704 50.5493 14.4461C51.0349 14.4461 51.5205 14.3733 51.9575 14.2276C52.346 14.1062 52.6859 13.8877 52.9772 13.5964C53.2443 13.3293 53.4628 12.9894 53.5842 12.6252ZM41.2261 23.2352C41.5417 23.3809 41.8574 23.5265 42.173 23.6965C42.2139 23.7101 42.2624 23.7314 42.3187 23.7561L42.3189 23.7561C42.3627 23.7754 42.4112 23.7966 42.4643 23.8179C42.4744 23.8279 42.4928 23.8422 42.5143 23.8588C42.5448 23.8824 42.5816 23.9108 42.61 23.9393V23.8664C42.6343 23.6479 42.6586 23.4051 42.6586 23.1624C42.6829 22.5068 42.5372 21.8755 42.2215 21.2929C41.9302 20.8315 41.5417 20.4431 41.0561 20.1517C40.5463 19.8604 39.9636 19.6419 39.3809 19.5205C38.7253 19.3748 38.0698 19.2777 37.39 19.2291C36.7102 19.1806 36.0546 19.1563 35.3991 19.1563C34.7921 19.1563 34.1851 19.132 33.6024 19.0592C33.1411 19.0106 32.6798 18.8892 32.2671 18.695C31.8786 18.525 31.6601 18.1366 31.6601 17.7238C31.6601 17.2382 31.9757 16.8012 32.5827 16.437L32.6555 16.3884L32.7527 16.4127C33.3596 16.5341 33.9909 16.5827 34.5979 16.5827C35.4719 16.5827 36.346 16.4613 37.1715 16.1942C37.8998 15.9514 38.5797 15.6115 39.1866 15.1259C39.7451 14.6889 40.2064 14.1305 40.522 13.4749C40.8619 12.7951 41.0076 12.0425 41.0076 11.2898L41.0027 11.2265C40.98 10.9291 40.9558 10.6133 40.9105 10.3186C40.8619 10.0273 40.7648 9.736 40.6677 9.44467L40.6677 9.44459L40.5706 9.17752L42.3915 8.83761C42.5857 8.83761 42.78 8.74049 42.9256 8.6191C43.0228 8.4977 43.0713 8.32775 43.0713 8.18207V6.89527H38.3369L38.2883 6.87099C37.7542 6.57964 37.1715 6.38541 36.5888 6.23973C35.9332 6.09406 35.2534 6.02122 34.5736 6.02122C33.6995 5.99694 32.8012 6.14262 31.9514 6.38541C31.1988 6.60392 30.4947 6.96811 29.8877 7.4537C29.3293 7.89072 28.868 8.44914 28.5523 9.10468C28.2124 9.7845 28.0425 10.5372 28.0668 11.2898C28.0425 12.2124 28.2853 13.1108 28.7709 13.8877C29.2564 14.6403 29.912 15.2473 30.7132 15.6601L31.1259 15.8786L30.7132 16.0971C30.3976 16.2671 30.0819 16.4613 29.7906 16.7041C29.5478 16.8983 29.3293 17.1411 29.135 17.4082C28.9651 17.651 28.8437 17.8938 28.7466 18.1608C28.6737 18.4036 28.6252 18.6464 28.6252 18.8892C28.6009 19.3748 28.7223 19.8604 28.9651 20.2731C29.0622 20.4188 29.1836 20.5402 29.3293 20.6616L29.3778 20.7101C29.475 20.8073 29.6206 20.9044 29.742 20.9772C29.9848 21.1229 30.2276 21.22 30.4947 21.3171C31.0774 21.5356 31.7086 21.7056 32.3399 21.8027C33.0197 21.8998 33.7238 21.9484 34.4279 21.9727C34.5736 21.9808 34.7193 21.9862 34.8649 21.9916C35.1563 22.0023 35.4476 22.0131 35.739 22.0455C36.9287 22.1426 38.0941 22.3369 39.2595 22.6039C39.9393 22.7739 40.5948 22.9924 41.2261 23.2352ZM37.0015 9.22608C37.5599 9.80878 37.8756 10.61 37.827 11.4112C37.8513 11.824 37.7785 12.2367 37.5842 12.6252C37.4385 12.9894 37.22 13.3293 36.953 13.5963C36.6616 13.8877 36.3217 14.0819 35.9332 14.2276C35.0349 14.5189 34.0394 14.5189 33.1168 14.2276C32.3642 13.9605 31.7329 13.3535 31.4659 12.6009C31.3445 12.2367 31.2716 11.824 31.2716 11.4112C31.2231 10.61 31.5387 9.80878 32.0971 9.22608C32.6555 8.69194 33.481 8.42486 34.5493 8.42486C35.6176 8.42486 36.4431 8.69194 37.0015 9.22608ZM26.5857 7.041V20.2003H24.7162C24.4249 20.2246 24.1578 20.0547 24.0607 19.7633L23.7208 18.1852L23.4052 18.5008C23.1138 18.7921 22.8225 19.0592 22.5068 19.302C21.5599 20.0547 20.3703 20.4431 19.1563 20.4188C18.4765 20.4188 17.7967 20.2974 17.1897 20.0547C16.6313 19.8119 16.1457 19.4477 15.7572 18.9864C15.3687 18.5008 15.0531 17.9424 14.8832 17.3354C14.6646 16.6556 14.5675 15.9272 14.5675 15.1988V6.3369H16.8741C17.2382 6.3369 17.5296 6.62825 17.5296 6.99244V15.1988C17.5296 16.1214 17.7481 16.8741 18.2094 17.3839C18.6707 17.8938 19.3263 18.1852 20.2246 18.1852C20.8558 18.1852 21.4628 18.0395 22.0212 17.7481C22.6039 17.4568 23.1138 17.0683 23.5751 16.607L23.648 16.5342V6.3369H25.9302C26.2701 6.3369 26.5857 6.65253 26.5857 7.041ZM13.0865 14.1062C13.1108 13.4021 12.9894 12.7223 12.7223 12.0668C12.4795 11.5326 12.1639 11.047 11.7269 10.6343C11.2898 10.2458 10.8285 9.90592 10.2944 9.66312C9.73596 9.42033 9.17754 9.17754 8.59484 8.98331C8.20549 8.84853 7.84384 8.73223 7.50421 8.623C7.2932 8.55514 7.09068 8.49001 6.8953 8.42488C6.38543 8.27921 5.85129 8.0607 5.36571 7.8179C4.95296 7.59939 4.56449 7.30804 4.24886 6.94385C3.93323 6.57966 3.76328 6.09408 3.78756 5.60849C3.78756 5.22003 3.86039 4.85584 4.00607 4.49165C4.15174 4.15174 4.37026 3.83611 4.66161 3.59332C4.97724 3.35053 5.34143 3.15629 5.72989 3.0349C6.1912 2.88922 6.67678 2.84066 7.16237 2.84066C7.69651 2.84066 8.23065 2.9135 8.74052 3.08346C9.12898 3.22913 9.51745 3.39909 9.88164 3.59332C10.1207 3.72204 10.3319 3.85075 10.5258 3.96892C10.5879 4.00678 10.6482 4.04356 10.7071 4.0789C10.8528 4.17602 11.047 4.22458 11.217 4.24886C11.3384 4.24886 11.4598 4.22458 11.5569 4.15174C11.6783 4.05462 11.7754 3.95751 11.824 3.81183L12.6737 2.2094C11.9939 1.60242 11.1927 1.14112 10.3187 0.825488C9.29894 0.43702 8.20637 0.267066 7.11381 0.267066C6.1912 0.242786 5.26859 0.412741 4.39454 0.75265C3.66616 1.01972 2.98634 1.45675 2.40364 1.99089C1.35964 2.98634 0.752656 4.37025 0.752656 5.82701C0.728376 6.57966 0.849772 7.3566 1.09256 8.0607C1.31108 8.61912 1.65099 9.12898 2.08801 9.54173C2.50076 9.95448 2.98634 10.2701 3.52049 10.5129C4.05463 10.7557 4.61305 10.9742 5.19575 11.1684C5.75417 11.3384 6.31259 11.5083 6.8953 11.6783C7.42944 11.7997 7.96358 12.0182 8.44917 12.261C8.88619 12.5038 9.27466 12.7951 9.59029 13.1836C9.90592 13.5964 10.0759 14.1062 10.0516 14.6404C10.0516 15.6601 9.71168 16.4613 9.08043 17.0197C8.44917 17.5781 7.55083 17.8452 6.43399 17.8452C5.77845 17.8695 5.14719 17.7724 4.54021 17.5539C4.07891 17.3839 3.64188 17.1654 3.20486 16.8983L3.20464 16.8982C2.76773 16.6069 2.47644 16.4127 2.23369 16.2428C2.06373 16.0971 1.84522 16.0243 1.62671 16C1.50531 16 1.35964 16.0243 1.26252 16.0971C1.24049 16.1136 1.21721 16.1302 1.19354 16.147C1.11283 16.2042 1.02749 16.2648 0.971168 16.3399L0 17.9666C0.364188 18.3065 0.752656 18.6222 1.1654 18.8407C1.65099 19.1806 2.18513 19.4477 2.71927 19.6662C3.27769 19.909 3.86039 20.0789 4.46737 20.2003C5.07435 20.346 5.68133 20.3945 6.31259 20.3945C7.30804 20.4188 8.27921 20.2489 9.20182 19.909C9.97876 19.6176 10.7071 19.1563 11.3141 18.5736C11.8968 18.0152 12.3338 17.3354 12.6252 16.5827C12.9408 15.7815 13.0865 14.956 13.0865 14.1062Z" fill="url(#paint0_linear_1132_10793)"/>
<path d="M43.5326 32.6798C35.302 32.7284 27.2413 30.349 20.346 25.8816C19.8361 25.566 19.6662 24.9105 19.9575 24.3763C20.2489 23.8422 20.9287 23.6965 21.4628 23.9879C21.4871 24.0122 21.5114 24.0122 21.5357 24.0364C28.0668 28.2853 35.7147 30.519 43.5084 30.4704C51.4719 30.4704 59.047 28.2367 65.481 24.0364C65.9909 23.6965 66.6707 23.8422 66.9863 24.3521C67.3262 24.8619 67.1806 25.5417 66.6707 25.8574C59.9211 30.3247 51.909 32.6798 43.5326 32.6798Z" fill="url(#paint1_linear_1132_10793)"/>
</g>
<defs>
<linearGradient id="paint0_linear_1132_10793" x1="-3.32868" y1="10.3327" x2="114.668" y2="10.3327" gradientUnits="userSpaceOnUse">
<stop stop-color="#47B7E5"/>
<stop offset="1" stop-color="#5369F6"/>
</linearGradient>
<linearGradient id="paint1_linear_1132_10793" x1="19.818" y1="28.2705" x2="67.2014" y2="28.2705" gradientUnits="userSpaceOnUse">
<stop offset="0.12" stop-color="#34FFD2"/>
<stop offset="0.65" stop-color="#4E64FF"/>
<stop offset="0.85" stop-color="#6964D5"/>
</linearGradient>
<clipPath id="clip0_1132_10793">
<rect width="112" height="32.6798" fill="white"/>
</clipPath>
</defs>
</svg>
