<svg width="176" height="187" viewBox="0 0 176 187" fill="none" xmlns="http://www.w3.org/2000/svg">
<g clip-path="url(#clip0_288_28551)">
<path d="M109.741 164.571C109.458 164.786 109.13 165.01 108.803 165.234C108.519 165.45 108.192 165.674 107.854 165.847L104.443 153.768C104.692 153.613 104.975 153.397 105.223 153.242C105.472 153.087 105.755 152.871 106.003 152.716L109.741 164.571Z" fill="#CCF2FF"/>
<path d="M82.1099 163.078C82.6468 162.974 83.1836 162.87 83.7205 162.766L82.9266 176.623C82.3003 176.745 81.6292 176.875 81.0029 176.996L82.1099 163.078Z" fill="#CCF2FF"/>
<path d="M78.9031 163.539C79.4499 163.487 79.9868 163.383 80.4889 163.339L79.0687 177.318C78.4424 177.439 77.806 177.509 77.1249 177.588L78.9031 163.539Z" fill="#CCF2FF"/>
<path d="M85.3656 162.393C85.8924 162.237 86.4293 162.133 87.0009 161.969L86.8781 175.696C86.217 175.878 85.6007 176.051 84.9396 176.233L85.3656 162.393Z" fill="#CCF2FF"/>
<path d="M88.572 161.45C89.0988 161.294 89.6604 161.078 90.1872 160.923L90.7155 174.417C90.0644 174.65 89.4134 174.883 88.7971 175.056L88.572 161.45Z" fill="#CCF2FF"/>
<path d="M91.7918 160.344C92.3087 160.136 92.8702 159.92 93.3871 159.713L94.5664 172.974C93.9253 173.259 93.2743 173.492 92.6332 173.777L91.7918 160.344Z" fill="#CCF2FF"/>
<path d="M95.0072 158.971C95.5587 158.703 96.0756 158.496 96.6272 158.228L98.4475 171.204C97.8165 171.541 97.1754 171.825 96.5344 172.11L95.0072 158.971Z" fill="#CCF2FF"/>
<path d="M98.1925 157.443C98.7441 157.175 99.2409 156.865 99.7925 156.597L102.244 169.237C101.613 169.573 100.982 169.91 100.351 170.246L98.1925 157.443Z" fill="#CCF2FF"/>
<path d="M101.383 155.7C101.924 155.381 102.421 155.07 102.963 154.751L106.035 167.002C105.414 167.391 104.793 167.779 104.162 168.115L101.383 155.7Z" fill="#CCF2FF"/>
<path d="M66.4578 163.277C66.9352 163.345 67.4673 163.455 67.9894 163.515L64.0286 177.558C63.407 177.465 62.8301 177.363 62.2085 177.269L66.4578 163.277Z" fill="#CCF2FF"/>
<path d="M72.6042 163.851C73.1163 163.859 73.6284 163.866 74.1853 163.865L71.4924 177.984C70.846 178.003 70.2444 178.012 69.5881 177.979L72.6042 163.851Z" fill="#CCF2FF"/>
<path d="M30.5544 100.223C30.4955 100.877 30.3919 101.539 30.333 102.193L18.8248 103.89C18.9084 103.124 18.982 102.307 19.1103 101.532L30.5544 100.223Z" fill="#CCF2FF"/>
<path d="M30.1559 104.154C30.097 104.808 30.0829 105.453 30.024 106.107L18.4869 108.612C18.5258 107.855 18.5994 107.038 18.6382 106.281L30.1559 104.154Z" fill="#CCF2FF"/>
<path d="M29.927 107.999C29.9129 108.644 29.8987 109.29 29.8846 109.935L18.3086 113.197C18.3027 112.449 18.3316 111.64 18.3705 110.883L29.927 107.999Z" fill="#CCF2FF"/>
<path d="M29.8868 111.861C29.9174 112.498 29.9033 113.143 29.9339 113.779L18.3737 117.841C18.3679 117.093 18.3173 116.353 18.3014 115.554L29.8868 111.861Z" fill="#CCF2FF"/>
<path d="M18.874 124.489L30.3582 119.318C30.4335 119.945 30.4988 120.522 30.5742 121.149L19.16 126.682C19.0647 125.951 18.9693 125.22 18.874 124.489Z" fill="#CCF2FF"/>
<path d="M30.0606 115.628C30.0912 116.265 30.1566 116.841 30.1872 117.477L18.6776 122.279C18.627 121.539 18.5764 120.8 18.5258 120.06L30.0606 115.628Z" fill="#CCF2FF"/>
<path d="M19.535 128.857L30.9238 122.955C31.0339 123.522 31.154 124.142 31.264 124.709L19.9452 130.973C19.7604 130.259 19.6203 129.537 19.535 128.857Z" fill="#CCF2FF"/>
<path d="M20.3559 133.088L31.6047 126.463C31.7147 127.03 31.8795 127.641 32.0343 128.2L20.9003 135.177C20.6708 134.472 20.4859 133.758 20.3559 133.088Z" fill="#CCF2FF"/>
<path d="M32.6688 130.753C32.7736 131.054 32.8236 131.312 32.9284 131.613L21.9592 139.2C21.8444 138.848 21.7396 138.547 21.6696 138.186C21.5995 137.825 21.4948 137.524 21.38 137.171L32.454 129.885C32.514 130.194 32.6188 130.495 32.6688 130.753Z" fill="#CCF2FF"/>
<path d="M33.4724 133.22C33.6719 133.77 33.8715 134.32 34.061 134.819L23.3214 143.111C23.0571 142.467 22.8375 141.813 22.618 141.16L33.4724 133.22Z" fill="#CCF2FF"/>
<path d="M34.7044 136.461C34.9487 137.002 35.1382 137.501 35.3725 137.991L24.8871 146.876C24.6328 146.283 24.3685 145.638 24.1042 144.994L34.7044 136.461Z" fill="#CCF2FF"/>
<path d="M36.0404 139.52C36.2747 140.01 36.5089 140.5 36.7879 140.981L26.6016 150.451C26.3026 149.867 26.0036 149.282 25.7045 148.698L36.0404 139.52Z" fill="#CCF2FF"/>
<path d="M37.5804 142.434C37.8594 142.915 38.1284 143.344 38.4074 143.826L28.5648 153.871C28.2211 153.295 27.8873 152.771 27.5883 152.187L37.5804 142.434Z" fill="#CCF2FF"/>
<path d="M39.2696 145.157C39.5386 145.587 39.8623 146.059 40.1761 146.48L30.6773 157.101C30.2988 156.586 29.965 156.062 29.5765 155.495L39.2696 145.157Z" fill="#CCF2FF"/>
<path d="M41.1169 147.743C41.4306 148.164 41.7444 148.585 42.0928 148.945L32.9825 160.134C32.5693 159.679 32.1908 159.163 31.8123 158.648L41.1169 147.743Z" fill="#CCF2FF"/>
<path d="M43.1235 150.191C43.482 150.603 43.8305 150.964 44.179 151.324L35.4719 162.916C35.0586 162.461 34.6454 162.006 34.2322 161.551L43.1235 150.191Z" fill="#CCF2FF"/>
<path d="M45.2242 152.406C45.5727 152.767 45.9659 153.119 46.3591 153.471L38.0653 165.518C37.6173 165.123 37.1593 164.677 36.7014 164.23L45.2242 152.406Z" fill="#CCF2FF"/>
<path d="M47.4845 154.484C47.8777 154.836 48.2609 155.136 48.6441 155.437L40.8429 167.87C40.3502 167.484 39.9023 167.089 39.4096 166.703L47.4845 154.484Z" fill="#CCF2FF"/>
<path d="M49.8929 156.372C50.3208 156.664 50.704 156.964 51.132 157.256L43.8135 170.024C43.3308 169.689 42.8034 169.363 42.3107 168.977L49.8929 156.372Z" fill="#CCF2FF"/>
<path d="M52.3957 158.028C52.8137 158.268 53.2416 158.56 53.7043 158.791L46.9132 171.885C46.3958 171.611 45.8683 171.285 45.3409 170.959L52.3957 158.028Z" fill="#CCF2FF"/>
<path d="M55.0028 159.503C55.4655 159.734 55.8835 159.974 56.3361 160.154L50.0625 173.522C49.5003 173.257 48.9829 172.982 48.4207 172.717L55.0028 159.503Z" fill="#CCF2FF"/>
<path d="M57.7492 160.737C58.2019 160.917 58.6545 161.096 59.1519 161.268L53.4304 174.85C52.8783 174.636 52.3261 174.422 51.774 174.208L57.7492 160.737Z" fill="#CCF2FF"/>
<path d="M60.5544 161.798C61.0518 161.97 61.4945 162.098 61.9919 162.269L56.8673 176.057C56.2804 175.903 55.6835 175.697 55.1414 175.535L60.5544 161.798Z" fill="#CCF2FF"/>
<path d="M63.4544 162.628C63.9418 162.747 64.4292 162.867 64.9166 162.987L60.3789 176.928C59.792 176.774 59.2151 176.672 58.5835 176.527L63.4544 162.628Z" fill="#CCF2FF"/>
<path d="M69.5017 163.65C70.0238 163.709 70.5359 163.717 71.0581 163.776L67.7088 177.862C67.0972 177.82 66.4856 177.778 65.874 177.736L69.5017 163.65Z" fill="#CCF2FF"/>
<path d="M75.7117 163.837C76.2138 163.793 76.7707 163.792 77.3176 163.74L75.261 177.789C74.6247 177.859 73.9783 177.877 73.332 177.895L75.7117 163.837Z" fill="#CCF2FF"/>
<path d="M141.225 102.633C141.428 102.005 141.621 101.325 141.814 100.645L152.675 102.071C152.457 102.863 152.239 103.655 151.966 104.404L141.225 102.633Z" fill="#CCF2FF"/>
<path d="M139.947 106.574C140.194 105.937 140.388 105.257 140.591 104.629L151.234 106.847C150.971 107.648 150.698 108.397 150.436 109.197L139.947 106.574Z" fill="#CCF2FF"/>
<path d="M138.505 110.387C138.752 109.75 139 109.113 139.248 108.476L149.628 111.495C149.356 112.244 149.048 113.053 148.731 113.81L138.505 110.387Z" fill="#CCF2FF"/>
<path d="M136.928 114.226C137.221 113.58 137.479 112.995 137.726 112.358L147.789 116.134C147.472 116.891 147.155 117.649 146.793 118.415L136.928 114.226Z" fill="#CCF2FF"/>
<path d="M135.187 117.936C135.489 117.342 135.782 116.696 136.075 116.051L145.82 120.584C145.458 121.35 145.131 122.056 144.769 122.822L135.187 117.936Z" fill="#CCF2FF"/>
<path d="M133.257 121.629C133.605 121.026 133.907 120.432 134.21 119.838L143.583 125.086C143.211 125.801 142.794 126.524 142.432 127.29L133.257 121.629Z" fill="#CCF2FF"/>
<path d="M131.208 125.184C131.555 124.582 131.903 123.979 132.26 123.428L141.217 129.399C140.8 130.122 140.383 130.846 139.957 131.517L131.208 125.184Z" fill="#CCF2FF"/>
<path d="M129.05 128.654C129.407 128.103 129.799 127.492 130.156 126.941L138.696 133.635C138.27 134.307 137.808 135.039 137.381 135.71L129.05 128.654Z" fill="#CCF2FF"/>
<path d="M126.727 131.996C127.129 131.436 127.531 130.876 127.888 130.325L136.001 137.691C135.53 138.371 135.058 139.051 134.577 139.68L126.727 131.996Z" fill="#CCF2FF"/>
<path d="M145.08 71.5334C145.05 70.897 144.975 70.2692 144.954 69.6844L156.463 64.8827C156.514 65.6223 156.565 66.3619 156.615 67.1015L145.08 71.5334Z" fill="#CCF2FF"/>
<path d="M145.254 75.3004C145.224 74.664 145.238 74.0188 145.207 73.3824L156.767 69.3203C156.773 70.0686 156.834 70.8598 156.84 71.6081L145.254 75.3004Z" fill="#CCF2FF"/>
<path d="M145.204 79.1107C145.218 78.4656 145.232 77.8205 145.246 77.1754L156.822 73.9132C156.828 74.6615 156.799 75.47 156.76 76.227L145.204 79.1107Z" fill="#CCF2FF"/>
<path d="M144.984 83.0074C145.043 82.3537 145.057 81.7085 145.116 81.0548L156.653 78.5495C156.615 79.3065 156.541 80.1237 156.502 80.8806L144.984 83.0074Z" fill="#CCF2FF"/>
<path d="M144.587 86.9388C144.646 86.285 144.749 85.6225 144.808 84.9687L156.316 83.272C156.233 84.0376 156.159 84.8549 156.031 85.6292L144.587 86.9388Z" fill="#CCF2FF"/>
<path d="M143.999 90.8533C144.103 90.1908 144.207 89.5284 144.31 88.8659L155.69 87.9435C155.562 88.7178 155.443 89.5437 155.315 90.318L143.999 90.8533Z" fill="#CCF2FF"/>
<path d="M143.278 94.7937C143.427 94.1225 143.53 93.4601 143.689 92.8405L154.94 92.6924C154.767 93.4754 154.639 94.2497 154.466 95.0327L143.278 94.7937Z" fill="#CCF2FF"/>
<path d="M142.324 98.726C142.472 98.0549 142.675 97.4267 142.824 96.7555L153.902 97.3904C153.729 98.1734 153.511 98.9651 153.338 99.7481L142.324 98.726Z" fill="#CCF2FF"/>
<path d="M86.5598 25.66C86.033 25.8158 85.4714 26.0317 84.9445 26.1874L84.4163 12.6933C85.0673 12.46 85.7184 12.2266 86.3347 12.0536L86.5598 25.66Z" fill="#CCF2FF"/>
<path d="M89.7751 24.7687C89.2483 24.9244 88.7114 25.0285 88.1398 25.1929L88.2626 11.4654C88.9237 11.2837 89.54 11.1106 90.2011 10.9289L89.7751 24.7687Z" fill="#CCF2FF"/>
<path d="M93.0312 24.0838C92.4943 24.1879 91.9575 24.292 91.4206 24.3961L92.1597 10.4956C92.8308 10.3654 93.4571 10.2439 94.0835 10.1225L93.0312 24.0838Z" fill="#CCF2FF"/>
<path d="M96.2274 23.5708C95.6805 23.6234 95.1437 23.7275 94.6415 23.7713L96.0618 9.79222C96.6981 9.72233 97.3244 9.60086 98.0055 9.52229L96.2274 23.5708Z" fill="#CCF2FF"/>
<path d="M99.3844 23.3332C98.8822 23.3771 98.3254 23.378 97.7785 23.4306L99.8351 9.38158C100.471 9.3117 101.118 9.2934 101.764 9.2751L99.3844 23.3332Z" fill="#CCF2FF"/>
<path d="M102.537 23.3107C102.025 23.303 101.512 23.2953 100.956 23.2962L103.648 9.17731C104.295 9.15901 104.906 9.20098 105.508 9.19136L102.537 23.3107Z" fill="#CCF2FF"/>
<path d="M108.683 23.8851C108.206 23.8171 107.673 23.7062 107.151 23.6469L111.112 9.60328C111.734 9.69684 112.311 9.79907 112.932 9.89263L108.683 23.8851Z" fill="#CCF2FF"/>
<path d="M111.677 24.4821C111.19 24.3625 110.702 24.243 110.215 24.1234L114.753 10.182C115.339 10.3358 115.916 10.438 116.548 10.5832L111.677 24.4821Z" fill="#CCF2FF"/>
<path d="M114.577 25.3115C114.079 25.1404 113.637 25.0121 113.139 24.8409L118.274 11.1049C118.861 11.2588 119.458 11.4642 120 11.6267L114.577 25.3115Z" fill="#CCF2FF"/>
<path d="M117.382 26.3733C116.929 26.1934 116.477 26.0135 115.979 25.8424L121.701 12.2602C122.253 12.4743 122.805 12.6884 123.357 12.9025L117.382 26.3733Z" fill="#CCF2FF"/>
<path d="M120.138 27.6588C119.676 27.4273 119.258 27.1872 118.805 27.0074L125.079 13.6393C125.641 13.905 126.158 14.1793 126.72 14.445L120.138 27.6588Z" fill="#CCF2FF"/>
<path d="M122.745 29.1337C122.327 28.8936 121.899 28.6019 121.437 28.3705L128.228 15.2768C128.745 15.5511 129.273 15.8771 129.8 16.203L122.745 29.1337Z" fill="#CCF2FF"/>
<path d="M125.248 30.7894C124.821 30.4977 124.437 30.1973 124.009 29.9056L131.328 17.1379C131.811 17.4725 132.338 17.7984 132.831 18.1846L125.248 30.7894Z" fill="#CCF2FF"/>
<path d="M127.657 32.6776C127.264 32.3256 126.88 32.0253 126.497 31.7249L134.298 19.2917C134.791 19.6779 135.239 20.0728 135.732 20.459L127.657 32.6776Z" fill="#CCF2FF"/>
<path d="M129.907 34.7037C129.558 34.3431 129.165 33.9911 128.772 33.6391L137.031 21.6524C137.479 22.0473 137.937 22.4938 138.385 22.8887L129.907 34.7037Z" fill="#CCF2FF"/>
<path d="M132.018 36.9708C131.659 36.5585 131.311 36.1979 130.962 35.8372L139.669 24.2454C140.083 24.7006 140.496 25.1557 140.909 25.6109L132.018 36.9708Z" fill="#CCF2FF"/>
<path d="M134.014 39.367C133.7 38.9461 133.387 38.5252 133.028 38.113L142.158 27.0279C142.527 27.4918 142.95 27.9985 143.329 28.5139L134.014 39.367Z" fill="#CCF2FF"/>
<path d="M135.862 41.9529C135.593 41.5233 135.269 41.0508 134.955 40.6298L144.454 30.0086C144.833 30.5241 145.166 31.0482 145.545 31.5636L135.862 41.9529Z" fill="#CCF2FF"/>
<path d="M137.561 44.7281C137.282 44.2469 137.003 43.7657 136.734 43.3361L146.621 33.2819C146.965 33.8576 147.299 34.3817 147.598 34.9661L137.561 44.7281Z" fill="#CCF2FF"/>
<path d="M148.53 36.6589C148.829 37.2433 149.128 37.8276 149.427 38.412L139.091 47.5896C138.856 47.0998 138.622 46.6099 138.343 46.1287L148.53 36.6589Z" fill="#CCF2FF"/>
<path d="M150.254 40.2857C150.508 40.8787 150.772 41.5233 151.037 42.168L140.402 50.7612C140.157 50.2198 139.968 49.7213 139.734 49.2314L150.254 40.2857Z" fill="#CCF2FF"/>
<path d="M151.809 43.9986C152.029 44.6519 152.293 45.2966 152.513 45.9499L141.658 53.8898C141.459 53.3397 141.259 52.7896 141.07 52.2911L151.809 43.9986Z" fill="#CCF2FF"/>
<path d="M153.171 47.9098C153.286 48.2623 153.391 48.5631 153.461 48.9243C153.576 49.2767 153.636 49.5862 153.75 49.9387L142.676 57.2254C142.572 56.9245 142.522 56.6666 142.417 56.3657C142.312 56.0649 142.262 55.8069 142.157 55.506L153.171 47.9098Z" fill="#CCF2FF"/>
<path d="M143.151 58.9534L154.285 51.9762C154.47 52.6898 154.6 53.3605 154.785 54.074L143.536 60.6987C143.416 60.0797 143.306 59.5122 143.151 58.9534Z" fill="#CCF2FF"/>
<path d="M143.921 62.4441L155.24 56.1805C155.38 56.9028 155.52 57.625 155.605 58.3044L144.216 64.2068C144.151 63.6306 144.031 63.0116 143.921 62.4441Z" fill="#CCF2FF"/>
<path d="M156.212 62.6297L144.728 67.8012C144.653 67.1735 144.587 66.5973 144.512 65.9695L155.926 60.4369C156.066 61.1592 156.161 61.8901 156.212 62.6297Z" fill="#CCF2FF"/>
<path d="M43.8783 61.9343C43.5309 62.5369 43.1836 63.1396 42.8263 63.6907L33.8795 57.7711C34.2963 57.0479 34.7131 56.3247 35.1399 55.6531L43.8783 61.9343Z" fill="#CCF2FF"/>
<path d="M46.0817 58.4557C45.7244 59.0068 45.3323 59.6181 44.975 60.1692L36.4003 53.5351C36.827 52.8635 37.2886 52.1316 37.7154 51.46L46.0817 58.4557Z" fill="#CCF2FF"/>
<path d="M41.8838 65.5329C41.5365 66.1355 41.2339 66.7295 40.9313 67.3235L31.5577 62.0756C31.9298 61.3611 32.3465 60.6379 32.7086 59.8717L41.8838 65.5329Z" fill="#CCF2FF"/>
<path d="M39.9438 69.1744C39.6412 69.7684 39.3486 70.414 39.056 71.0596L29.3104 66.5261C29.6724 65.76 29.9997 65.0542 30.3618 64.2881L39.9438 69.1744Z" fill="#CCF2FF"/>
<path d="M38.2129 72.936C37.9204 73.5816 37.6725 74.2185 37.4147 74.8038L27.317 71.0881C27.6343 70.3306 27.9516 69.5732 28.3136 68.8071L38.2129 72.936Z" fill="#CCF2FF"/>
<path d="M36.6265 76.7232C36.3787 77.3601 36.1309 77.997 35.883 78.6339L25.5028 75.6153C25.7753 74.8665 26.0826 74.0575 26.3999 73.3001L36.6265 76.7232Z" fill="#CCF2FF"/>
<path d="M33.9061 84.4773C33.703 85.1056 33.5099 85.7854 33.3168 86.4652L22.4561 85.0386C22.674 84.247 22.8918 83.4553 23.1643 82.7065L33.9061 84.4773Z" fill="#CCF2FF"/>
<path d="M32.8071 88.3841C32.6588 89.0552 32.4557 89.6834 32.3073 90.3546L21.2288 89.7197C21.4019 88.9367 21.6197 88.145 21.7928 87.362L32.8071 88.3841Z" fill="#CCF2FF"/>
<path d="M31.8622 92.3679C31.7138 93.0391 31.6002 93.6499 31.4518 94.3211L20.2003 94.4692C20.3734 93.6862 20.5017 92.9119 20.6648 92.0773L31.8622 92.3679Z" fill="#CCF2FF"/>
<path d="M31.141 96.3084C31.0374 96.9709 30.9338 97.6334 30.8302 98.2958L19.4503 99.2182C19.5786 98.4439 19.697 97.618 19.8253 96.8437L31.141 96.3084Z" fill="#CCF2FF"/>
<path d="M35.1947 80.5875C34.9468 81.2244 34.7537 81.9042 34.5506 82.5324L23.9078 80.3142C24.1704 79.5138 24.4429 78.7651 24.7055 77.9647L35.1947 80.5875Z" fill="#CCF2FF"/>
<path d="M53.354 48.8016C52.942 49.3097 52.4852 49.8266 52.0731 50.3347L44.9576 41.6511C45.4839 41.0138 45.9755 40.4367 46.5017 39.7993L53.354 48.8016Z" fill="#CCF2FF"/>
<path d="M48.4044 55.1145C48.0024 55.6743 47.6003 56.234 47.243 56.7851L39.1298 49.4192C39.6013 48.7389 40.0728 48.0586 40.5544 47.4299L48.4044 55.1145Z" fill="#CCF2FF"/>
<path d="M58.7721 42.9866C58.3053 43.4519 57.8384 43.9171 57.3716 44.3824L51.3288 34.5272C51.865 33.9415 52.4561 33.3986 53.0024 32.8644L58.7721 42.9866Z" fill="#CCF2FF"/>
<path d="M56.0256 45.8211C55.5588 46.2863 55.1467 46.7945 54.6799 47.2598L48.1007 37.9904C48.637 37.4046 49.1733 36.8188 49.7096 36.233L56.0256 45.8211Z" fill="#CCF2FF"/>
<path d="M50.7923 51.8679C50.3802 52.3761 49.9781 52.9358 49.5661 53.444L41.9791 45.4407C42.4607 44.812 42.9769 44.123 43.4585 43.4943L50.7923 51.8679Z" fill="#CCF2FF"/>
<path d="M61.6027 40.35C61.1258 40.7637 60.659 41.2289 60.1822 41.6426L54.7204 31.1929C55.3114 30.6501 55.8577 30.1159 56.4587 29.6246L61.6027 40.35Z" fill="#CCF2FF"/>
<path d="M64.5528 37.8507C64.076 38.2643 63.5544 38.6867 63.0776 39.1003L58.172 28.1681C58.7731 27.6768 59.3741 27.1855 59.9304 26.7029L64.5528 37.8507Z" fill="#CCF2FF"/>
<path d="M67.5431 35.5577C67.0115 35.9285 66.5247 36.2906 66.0479 36.7042L61.7433 25.2807C62.3544 24.841 62.9554 24.3498 63.5664 23.9101L67.5431 35.5577Z" fill="#CCF2FF"/>
<path d="M69.8733 33.9282C69.6249 34.0834 69.3417 34.2989 69.0933 34.4542L65.3998 22.591C65.683 22.3755 66.0109 22.1513 66.3488 21.9787C66.6766 21.7545 66.9598 21.539 67.2977 21.3664L70.708 33.4451C70.3601 33.5661 70.1217 33.773 69.8733 33.9282Z" fill="#CCF2FF"/>
<path d="M80.1236 28.1395C79.572 28.4071 79.0552 28.6144 78.5036 28.8819L76.6832 15.906C77.3143 15.5695 77.9553 15.2846 78.5964 14.9997L80.1236 28.1395Z" fill="#CCF2FF"/>
<path d="M76.9483 29.7189C76.3967 29.9865 75.8999 30.2969 75.3483 30.5645L72.8969 17.9251C73.528 17.5886 74.159 17.2521 74.7901 16.9156L76.9483 29.7189Z" fill="#CCF2FF"/>
<path d="M73.7583 31.4617C73.2168 31.7809 72.7199 32.0913 72.1783 32.4105L69.1059 20.1592C69.7269 19.7711 70.348 19.383 70.979 19.0465L73.7583 31.4617Z" fill="#CCF2FF"/>
<path d="M83.3493 26.818C82.8325 27.0253 82.2709 27.2413 81.7541 27.4486L80.5748 14.1878C81.2158 13.9029 81.8669 13.6695 82.5179 13.4362L83.3493 26.818Z" fill="#CCF2FF"/>
<path d="M105.629 23.4603C105.107 23.401 104.595 23.3932 104.073 23.3339L107.422 9.24831C108.034 9.29028 108.645 9.33225 109.257 9.37421L105.629 23.4603Z" fill="#CCF2FF"/>
<path d="M119.116 141.341C119.582 140.875 119.995 140.367 120.461 139.902L127.04 149.171C126.504 149.757 125.968 150.343 125.432 150.929L119.116 141.341Z" fill="#CCF2FF"/>
<path d="M121.787 138.36C122.199 137.852 122.655 137.335 123.067 136.827L130.183 145.511C129.657 146.148 129.165 146.725 128.639 147.362L121.787 138.36Z" fill="#CCF2FF"/>
<path d="M124.294 135.251C124.706 134.743 125.108 134.183 125.511 133.623L133.152 141.669C132.671 142.298 132.199 142.978 131.673 143.616L124.294 135.251Z" fill="#CCF2FF"/>
<path d="M110.578 149.259C111.055 148.846 111.577 148.423 112.064 148.061L116.969 158.994C116.368 159.485 115.767 159.976 115.211 160.459L110.578 149.259Z" fill="#CCF2FF"/>
<path d="M113.484 146.769C113.961 146.355 114.428 145.89 114.905 145.476L120.366 155.926C119.775 156.469 119.229 157.003 118.628 157.494L113.484 146.769Z" fill="#CCF2FF"/>
<path d="M116.36 144.123C116.826 143.658 117.293 143.193 117.76 142.728L123.803 152.583C123.257 153.117 122.676 153.711 122.129 154.246L116.36 144.123Z" fill="#CCF2FF"/>
<path d="M107.553 151.613C108.085 151.242 108.572 150.88 109.048 150.466L113.353 161.89C112.742 162.329 112.141 162.821 111.53 163.26L107.553 151.613Z" fill="#CCF2FF"/>
</g>
<defs>
<clipPath id="clip0_288_28551">
<rect width="147.105" height="161.383" fill="white" transform="translate(0 28.3699) rotate(-10.9762)"/>
</clipPath>
</defs>
</svg>
