<svg width="534" height="253" viewBox="0 0 534 253" fill="none" xmlns="http://www.w3.org/2000/svg">
<path fill-rule="evenodd" clip-rule="evenodd" d="M397.956 16.0666C397.931 16.0885 397.907 16.117 397.88 16.1481C397.818 16.2198 397.744 16.3053 397.63 16.3557C397.549 16.3918 397.468 16.446 397.386 16.5002C397.305 16.5544 397.224 16.6086 397.142 16.6448C396.979 16.717 396.735 16.7893 396.491 16.8616C396.247 16.9338 396.003 17.0061 395.677 17.0784L356.777 24.9558C356.397 25.0522 356.017 25.0843 355.637 25.1164C355.447 25.1325 355.258 25.1485 355.068 25.1726C354.878 25.1726 354.688 25.1807 354.498 25.1887C354.118 25.2047 353.738 25.2208 353.359 25.1726C352.789 25.1726 352.219 25.1003 351.731 24.9558C351.243 24.8835 350.754 24.739 350.429 24.5945C349.045 24.0163 347.499 23.4381 345.953 22.9323C344.325 22.4264 342.698 21.9927 340.907 21.5591C339.676 21.2609 338.406 21.031 337.124 20.7989C336.542 20.6936 335.958 20.5879 335.373 20.4751C333.42 20.186 331.467 19.8969 329.351 19.7524C323.654 19.2465 317.876 19.1019 312.261 19.391C306.646 19.6801 301.112 20.3305 295.984 21.3423C290.857 22.3541 286.056 23.655 281.987 25.2449C277.836 26.9071 274.418 28.7861 271.895 31.0265C271 31.8215 270.268 32.6164 269.617 33.4837C269.047 34.2786 268.559 35.1459 268.315 36.0131C268.07 36.8804 267.908 37.6753 267.989 38.5426C268.07 39.4098 268.315 40.277 268.722 41.072C268.803 41.1443 268.803 41.2888 268.803 41.3611V41.6502C268.803 41.7224 268.722 41.867 268.64 41.9393C268.6 41.9754 268.559 42.0296 268.518 42.0838C268.477 42.138 268.437 42.1922 268.396 42.2283C268.315 42.3006 268.233 42.3548 268.152 42.409L268.152 42.4092C268.07 42.4633 267.989 42.5175 267.908 42.5897C267.809 42.6772 267.681 42.7382 267.541 42.8048C267.449 42.8482 267.353 42.894 267.257 42.951C267.158 42.9803 267.059 43.0215 266.955 43.0648C266.801 43.1286 266.637 43.1971 266.443 43.2401L265.466 43.4569L241.214 48.3713C240.482 48.5158 239.75 48.5881 239.017 48.5881C238.285 48.5881 237.634 48.5881 236.983 48.5158C236.332 48.4436 235.843 48.299 235.355 48.1545C234.867 48.0099 234.541 47.7931 234.297 47.504L224.775 37.1694C224.735 37.0972 224.694 37.0429 224.653 36.9887C224.613 36.9345 224.572 36.8803 224.531 36.8081V36.4467C224.531 36.3409 224.575 36.2738 224.63 36.1888C224.65 36.1577 224.672 36.1241 224.694 36.0854C224.747 35.992 224.833 35.9288 224.932 35.8569C224.986 35.8174 225.043 35.7752 225.101 35.724C225.22 35.6182 225.339 35.5511 225.49 35.4661C225.546 35.4349 225.605 35.4014 225.671 35.3627C225.915 35.2181 226.077 35.1459 226.403 35.0736C226.525 35.0375 226.667 34.9833 226.81 34.9291C226.952 34.8749 227.095 34.8207 227.217 34.7845L228.193 34.5677C228.844 34.4232 229.577 34.3509 230.228 34.3509C230.879 34.3509 231.53 34.3509 232.1 34.4232L232.1 34.4232C232.67 34.4955 233.239 34.5677 233.646 34.7123C234.053 34.8568 234.46 35.0736 234.623 35.2904L242.761 43.746L257.735 40.7829C257.491 39.8434 257.491 38.9762 257.572 38.0367C257.654 37.0972 257.979 36.2299 258.386 35.2904C258.793 34.4232 259.363 33.4837 260.095 32.6164C260.828 31.7492 261.641 30.8819 262.618 30.0147C265.71 27.3407 270.024 25.0281 275.069 23.0768C280.115 21.1255 285.893 19.5356 292.16 18.3792C298.345 17.2229 305.018 16.428 311.854 16.0666C318.69 15.7053 325.689 15.8498 332.525 16.5002C334.722 16.717 336.838 16.9338 338.873 17.2229C340.907 17.512 342.942 17.8734 344.895 18.2347C346.544 18.5398 348.135 18.9479 349.619 19.3285C349.893 19.3987 350.163 19.468 350.429 19.5356C352.219 20.0415 353.928 20.5473 355.556 21.1255L380.296 16.2111L233.727 2.98574C231.937 2.8412 230.147 2.76893 228.275 2.91347C226.403 2.98574 224.613 3.20255 222.822 3.49163C221.032 3.78071 219.404 4.21433 217.939 4.72022C216.474 5.22611 215.254 5.80427 214.277 6.4547L209.72 9.56231L227.298 27.7743C227.38 27.8466 227.461 27.9911 227.542 28.1357V28.497C227.542 28.6028 227.499 28.6699 227.443 28.755C227.423 28.7861 227.401 28.8197 227.38 28.8584C227.339 28.9307 227.278 28.9849 227.217 29.0391C227.156 29.0933 227.095 29.1475 227.054 29.2197C226.973 29.292 226.891 29.3462 226.81 29.4004C226.729 29.4546 226.647 29.5088 226.566 29.5811C226.539 29.5929 226.51 29.6066 226.48 29.6216C226.454 29.6345 226.426 29.6483 226.398 29.6626L226.398 29.6627C226.255 29.7343 226.085 29.8198 225.915 29.8702C225.816 29.8994 225.717 29.9406 225.613 29.984C225.459 30.0477 225.295 30.1163 225.101 30.1592C224.992 30.1833 224.893 30.2074 224.793 30.2315L224.793 30.2315C224.594 30.2797 224.396 30.3279 224.124 30.3761C223.473 30.5206 222.741 30.5929 222.09 30.5929C221.439 30.5929 220.788 30.5929 220.218 30.5206C219.648 30.4483 219.16 30.3761 218.672 30.2315C218.265 30.087 217.939 29.8702 217.695 29.6534L200.198 10.6464C200.117 10.5741 200.035 10.5018 200.035 10.4295V10.2127C200.035 10.1766 200.056 10.1405 200.076 10.1043C200.096 10.0682 200.117 10.0321 200.117 9.99593C200.117 9.92366 200.198 9.85139 200.279 9.77912L200.442 9.63458L200.524 9.56231L200.605 9.49004C200.605 9.49004 200.686 9.49004 200.686 9.41777L206.302 5.732C207.848 4.72022 209.964 3.78071 212.324 2.98574C214.684 2.19077 217.37 1.54034 220.218 1.03445C223.066 0.528562 225.996 0.239482 229.007 0.0949417C232.018 -0.0495983 234.948 -0.0495983 237.796 0.239482L394.375 14.043C395.108 14.1153 395.759 14.1876 396.328 14.3321C396.817 14.4767 397.224 14.6212 397.549 14.838C397.875 15.0548 398.037 15.2716 398.119 15.4884C398.119 15.633 398.037 15.8498 397.956 16.0666ZM510.995 169.351C511.565 168.918 511.89 168.339 511.972 167.761L533.945 36.23C534.189 34.8568 533.619 33.4114 532.317 32.1106C531.015 30.8097 529.062 29.5089 526.62 28.4248C524.26 27.3408 521.249 26.4012 517.994 25.6063C514.739 24.8113 511.077 24.2331 507.252 23.8718L421.394 16.3557H420.58H419.766C419.644 16.3557 419.502 16.3738 419.359 16.3919C419.217 16.4099 419.074 16.428 418.952 16.428C418.683 16.428 418.469 16.4776 418.218 16.5357L418.217 16.5359L418.134 16.5552L418.057 16.5725L361.578 28.208C361.253 28.2803 360.927 28.3525 360.683 28.4248C360.561 28.4609 360.439 28.5151 360.317 28.5693C360.195 28.6235 360.073 28.6777 359.95 28.7139C359.706 28.7862 359.544 28.8584 359.381 29.003C359.323 29.0542 359.265 29.0963 359.211 29.1358C359.113 29.2078 359.026 29.271 358.974 29.3643C358.943 29.4195 358.912 29.4642 358.885 29.5023C358.842 29.5641 358.811 29.6087 358.811 29.6534C358.73 29.7979 358.73 29.8702 358.73 29.9425C358.73 30.0271 358.758 30.087 358.781 30.1366C358.797 30.1717 358.811 30.2016 358.811 30.2316C358.842 30.2868 358.861 30.3314 358.878 30.3696C358.904 30.4313 358.924 30.476 358.974 30.5206C359.625 31.2433 360.032 32.0383 360.357 32.8333C360.601 33.6282 360.764 34.4232 360.764 35.2182C360.764 36.0131 360.601 36.8804 360.276 37.6754C359.95 38.4703 359.462 39.3376 358.811 40.1325C356.939 42.5174 353.765 44.7578 349.696 46.6368C345.546 48.5881 340.5 50.1781 334.885 51.4066C329.188 52.6352 323.003 53.5025 316.574 53.7916C310.145 54.1529 303.634 53.9361 297.286 53.2134C295.089 52.9243 293.055 52.6352 291.02 52.2739C288.986 51.9125 287.114 51.4789 285.323 50.973C283.533 50.4671 281.905 49.9613 280.359 49.3831C278.813 48.8049 277.429 48.1545 276.127 47.5041C275.72 47.3595 275.313 47.215 274.825 47.0704C274.337 46.9982 273.767 46.926 273.198 46.8537L273.197 46.8536C272.628 46.7814 271.977 46.7814 271.407 46.8536C270.837 46.8536 270.186 46.9259 269.617 47.0704L244.795 52.1293C244.47 52.2739 244.144 52.3462 243.819 52.4184C243.493 52.4907 243.168 52.563 242.923 52.7075C242.801 52.7798 242.679 52.834 242.557 52.8882C242.435 52.9424 242.313 52.9966 242.191 53.0689C241.947 53.1411 241.784 53.2857 241.621 53.4302C241.458 53.5747 241.296 53.7193 241.214 53.8638C241.133 54.0084 241.052 54.1529 241.052 54.2974C240.97 54.442 240.97 54.5865 241.052 54.7311C241.052 54.8756 241.133 55.0201 241.296 55.1647L255.619 70.7027C255.782 70.9195 256.107 71.1364 256.433 71.2809C256.758 71.4254 257.165 71.57 257.653 71.7145C258.142 71.7868 258.63 71.859 259.2 71.9313H260.909L310.552 69.6187C311.61 69.6187 312.586 69.6187 313.481 69.691C314.377 69.7632 315.272 69.8355 316.086 70.0523C316.899 70.2691 317.632 70.4859 318.283 70.775C318.934 71.0641 319.504 71.4254 319.911 71.7868L408.78 149.405C410.082 150.561 411.546 151.573 413.174 152.585C414.802 153.524 416.592 154.464 418.545 155.259C420.499 156.054 422.614 156.776 424.812 157.427C427.009 158.005 429.369 158.511 431.811 158.944L502.776 170.724C503.915 170.941 505.054 171.013 506.112 170.941C507.17 170.869 508.147 170.724 508.961 170.435C509.774 170.146 510.507 169.785 510.995 169.351ZM310.145 64.7766L265.222 66.8724L253.666 54.8756L269.535 51.768C271.081 52.4184 272.709 53.0689 274.418 53.647C276.209 54.2975 278.08 54.8033 280.033 55.3092C280.478 55.4078 280.926 55.5102 281.38 55.6137L281.382 55.6142L281.384 55.6147C282.923 55.9662 284.522 56.3312 286.218 56.6101C288.334 56.9714 290.613 57.3328 292.973 57.6219C300.786 58.4891 309.005 58.7782 316.981 58.3446C324.956 57.9109 332.688 56.8992 339.768 55.3815C346.767 53.7916 353.033 51.768 358.079 49.3831C363.043 46.9982 366.786 44.2519 369.065 41.2889C369.716 40.4216 370.286 39.4821 370.611 38.6149C371.018 37.6754 371.181 36.8081 371.262 35.9409C371.344 35.0736 371.263 34.2064 371.018 33.3392C370.856 32.4719 370.449 31.6047 369.96 30.8097L421.882 20.0415L451.912 22.7155C450.122 24.1609 448.494 25.6063 446.866 27.0517L446.865 27.0525C445.319 28.5699 443.773 30.0873 442.39 31.6047C440.925 33.1223 439.623 34.7123 438.484 36.3022C437.263 37.8922 436.205 39.5544 435.229 41.2166L434.911 41.2366L434.696 41.2501C434.294 41.2751 433.886 41.3001 433.478 41.3251L433.473 41.3254C432.885 41.3614 432.297 41.3974 431.729 41.4334C431.159 41.4695 430.569 41.5237 429.979 41.5779C429.389 41.6321 428.799 41.6863 428.23 41.7225C427.09 41.7947 425.951 41.867 424.73 42.0116C424.12 42.0838 423.53 42.138 422.94 42.1922L422.94 42.1922C422.35 42.2464 421.76 42.3006 421.15 42.3729C413.581 43.1679 406.094 44.3965 398.688 45.9141C391.201 47.5041 383.714 49.4554 376.145 51.6235C368.496 53.7916 360.764 56.321 352.952 59.0673C344.976 61.8135 336.838 64.8489 328.537 67.9565C327.479 67.3783 326.258 66.8724 324.875 66.4388C323.491 66.0052 322.026 65.6438 320.48 65.3548C318.934 65.0657 317.225 64.8489 315.516 64.7766C313.726 64.7043 311.935 64.7043 310.145 64.7766ZM361.171 94.9854L334.234 72.3649C342.453 69.1851 350.592 66.0775 358.486 63.3312C366.298 60.5849 373.867 57.9832 381.354 55.7428C388.678 53.5025 396.003 51.5512 403.246 49.9613C410.407 48.3713 417.569 47.215 424.812 46.42C425.544 46.3478 426.277 46.2755 426.928 46.2032C427.253 46.1671 427.599 46.1309 427.945 46.0948C428.291 46.0587 428.637 46.0225 428.962 45.9864C429.613 45.9864 430.346 45.9141 430.997 45.8419C431.322 45.8057 431.668 45.7877 432.014 45.7696C432.36 45.7515 432.706 45.7335 433.031 45.6973C432.055 48.1545 431.322 50.6117 430.753 53.1411C430.183 55.6706 429.857 58.2723 429.695 60.9463C429.613 63.6203 429.695 66.3665 430.02 69.1128C430.346 71.9313 430.997 74.8221 431.811 77.6406L361.171 94.9854ZM374.029 105.754L367.519 100.261L457.853 77.7129C460.376 77.0625 463.061 76.5566 465.828 76.1953C468.595 75.8339 471.444 75.5448 474.373 75.4003C477.303 75.2557 480.314 75.1835 483.407 75.328C486.499 75.4726 489.592 75.6894 492.766 76.0507L513.437 78.4356L512.297 83.7836L491.301 81.2542C488.941 80.9651 486.499 80.8205 484.058 80.7483C481.616 80.676 479.175 80.7483 476.733 80.8928C474.292 81.0373 471.932 81.3264 469.734 81.6878C467.537 82.0491 465.421 82.4827 463.468 83.0609L374.029 105.754ZM496.102 160.823L434.822 150.995C433.438 150.778 432.136 150.489 430.915 150.127C429.613 149.838 428.474 149.405 427.335 148.971L427.334 148.971C426.195 148.465 425.219 148.032 424.242 147.453C423.347 146.948 422.452 146.369 421.719 145.719L380.784 111.391L440.6 95.7081C442.472 98.4544 444.506 101.128 446.785 103.875C449.145 106.621 451.749 109.367 454.516 112.113C457.364 114.932 460.457 117.678 463.794 120.424C467.212 123.243 470.874 125.989 474.78 128.736L474.781 128.736C476.653 130.037 478.524 131.337 480.477 132.566L480.546 132.609L480.961 132.871C481.24 133.047 481.52 133.223 481.801 133.401L481.806 133.404L481.808 133.405C483.347 134.377 484.923 135.372 486.499 136.324C488.615 137.625 490.731 138.853 492.928 140.082C495.126 141.31 497.404 142.539 499.683 143.768L496.102 160.823ZM501.799 124.399C502.369 124.688 502.938 125.05 503.508 125.411L501.473 134.589C500.09 133.867 498.788 133.144 497.486 132.349C496.998 132.051 496.509 131.763 496.026 131.478L496.025 131.477L496.024 131.477L496.024 131.477C495.218 131.001 494.423 130.533 493.661 130.036C493.05 129.639 492.44 129.259 491.829 128.88L491.828 128.879L491.827 128.878L491.827 128.878C491.217 128.499 490.608 128.121 489.999 127.724C488.778 127.001 487.557 126.206 486.418 125.411C482.511 122.737 478.768 120.063 475.35 117.317C472.013 114.643 468.839 111.897 465.991 109.15C463.143 106.404 460.62 103.73 458.26 100.984C455.981 98.3099 453.865 95.5636 452.075 92.8896L463.549 89.9265C465.259 92.6005 467.293 95.2022 469.49 97.804C471.769 100.478 474.211 103.08 476.978 105.681C479.826 108.283 482.837 110.885 486.092 113.487C489.429 116.088 493.01 118.69 496.835 121.219C497.12 121.4 497.384 121.581 497.649 121.762L497.649 121.762L497.649 121.762C497.914 121.943 498.178 122.123 498.462 122.303C498.951 122.665 499.52 123.026 500.09 123.388C500.66 123.677 501.229 124.038 501.799 124.399ZM507.903 48.9495C511.89 49.5276 515.634 50.1781 519.215 50.8285L514.332 73.3767L493.986 71.0641C491.626 70.775 489.348 70.5582 487.069 70.4137C484.871 70.2743 482.674 70.2021 480.55 70.1323L480.314 70.1246C478.117 70.0523 475.92 70.0523 473.722 70.1246C471.525 70.1968 469.409 70.3414 467.293 70.4859C467.012 69.4866 466.791 68.4333 466.579 67.4193C466.546 67.26 466.512 67.1017 466.479 66.9447C466.235 65.7166 466.072 64.5607 465.91 63.4049L465.91 63.4035L465.665 59.9345C465.584 58.8505 465.584 57.6941 465.665 56.5378L465.91 53.9361C465.991 53.503 466.072 53.0878 466.153 52.6727L466.154 52.6714C466.235 52.2559 466.316 51.8403 466.398 51.4066C466.561 50.5394 466.805 49.7444 467.049 48.9495C467.293 48.0822 467.537 47.3595 467.863 46.5646C467.903 46.4925 467.924 46.4383 467.944 46.3843L467.944 46.3839L467.944 46.3835C467.965 46.3294 467.985 46.2753 468.026 46.2032C468.066 46.1309 468.087 46.0767 468.107 46.0225C468.127 45.9683 468.148 45.9141 468.188 45.8419C468.229 45.7696 468.249 45.7154 468.27 45.6612L468.27 45.6609C468.29 45.6068 468.31 45.5527 468.351 45.4805C468.392 45.4084 468.412 45.3543 468.432 45.3002L468.432 45.2998C468.453 45.2456 468.473 45.1914 468.514 45.1192C473.315 45.336 477.954 45.6251 482.43 45.9864C486.987 46.3478 491.382 46.7814 495.614 47.2873C499.846 47.7932 503.996 48.3713 507.903 48.9495ZM484.546 25.534L506.194 27.4853C508.635 27.7021 510.832 28.1357 512.786 28.5693C514.82 29.0752 516.61 29.7257 518.075 30.3761C519.622 31.0265 520.761 31.8215 521.493 32.6165C522.226 33.4114 522.551 34.2787 522.389 35.1459L520.028 46.42C516.529 45.7696 512.786 45.1914 508.879 44.6133C504.973 44.0351 500.985 43.5292 496.835 43.0233C492.684 42.5174 488.452 42.0838 484.058 41.7225C479.745 41.3611 475.187 41.072 470.63 40.8552C471.525 39.2653 472.583 37.7476 473.722 36.3022C474.862 34.9291 476.001 33.556 477.222 32.2551C478.442 30.9543 479.663 29.7979 480.884 28.6416C482.105 27.5576 483.325 26.4735 484.546 25.534ZM454.516 67.8842C454.76 69.2573 455.086 70.6305 455.411 72.0036C455.012 72.0543 454.492 72.1406 453.908 72.2375C453.66 72.2787 453.4 72.3218 453.133 72.3649C452.157 72.5816 450.937 72.8705 449.717 73.1595L449.715 73.1599L449.714 73.1601C448.493 73.4491 447.273 73.7381 446.215 74.0272C445.396 74.251 444.674 74.4316 444.126 74.5687L444.125 74.5688L444.125 74.5689L444.125 74.569L444.124 74.5691L443.837 74.6409L443.692 74.6776C442.96 72.0036 442.472 69.3296 442.146 66.7279C441.821 64.1262 441.739 61.5967 441.902 59.0673C442.065 56.6101 442.39 54.1529 442.96 51.768C443.53 49.3831 444.262 47.0704 445.157 44.8301C445.697 44.8301 446.215 44.8113 446.723 44.7929L446.724 44.7929C447.212 44.7752 447.69 44.7578 448.168 44.7578C448.657 44.7578 449.145 44.7397 449.633 44.7217C450.122 44.7036 450.61 44.6855 451.098 44.6855H454.028H456.958C456.876 44.7578 456.876 44.7578 456.876 44.8301C456.795 44.9024 456.795 44.9024 456.795 44.9746C456.713 45.0469 456.713 45.0469 456.713 45.1192C456.632 45.1914 456.632 45.1914 456.632 45.2637C456.307 46.0587 455.981 46.8536 455.655 47.7209C455.33 48.5881 455.086 49.4554 454.842 50.3226C454.598 51.1898 454.435 52.0571 454.272 52.9966C454.109 53.8638 454.028 54.8033 453.946 55.7428C453.865 57.0437 453.784 58.4168 453.784 59.7177C453.784 61.0908 453.784 62.3917 453.946 63.7648L453.947 63.7664C454.109 65.139 454.272 66.5116 454.516 67.8842ZM489.836 86.6744L511.158 89.2761L505.38 115.944C501.88 113.559 498.625 111.174 495.614 108.789C492.603 106.404 489.836 104.019 487.313 101.562C484.872 99.1771 482.511 96.7199 480.477 94.2627C478.442 91.8778 476.652 89.4206 475.024 86.9635C476.082 86.7467 477.222 86.6021 478.442 86.4576C478.849 86.4335 479.255 86.4014 479.662 86.3693L479.663 86.3692C480.477 86.305 481.291 86.2408 482.105 86.2408C483.407 86.2408 484.627 86.2408 485.93 86.313C487.232 86.3853 488.534 86.5299 489.836 86.6744ZM462.573 23.5827L473.559 24.5945C472.257 25.6063 470.955 26.6903 469.734 27.7744C468.432 28.9307 467.13 30.2316 465.91 31.5324C464.607 32.9055 463.387 34.2787 462.247 35.7963C461.108 37.2417 459.969 38.8317 458.992 40.4939H456.062H453.133H450.203C449.715 40.4939 449.206 40.5119 448.698 40.53L448.697 40.53C448.189 40.5481 447.68 40.5662 447.192 40.5662C448.087 39.0485 449.064 37.6031 450.203 36.0854C451.261 34.64 452.482 33.1946 453.784 31.7492C455.086 30.3038 456.469 28.9307 457.934 27.5576C459.399 26.1844 460.945 24.8836 462.573 23.5827ZM349.127 39.0484C347.581 40.9275 345.058 42.6619 341.803 44.1073C338.547 45.625 334.56 46.8536 330.165 47.7931C325.77 48.7326 320.888 49.383 315.923 49.5998C310.959 49.8167 305.832 49.7444 300.949 49.1662C296.066 48.5881 291.834 47.6486 288.335 46.4922C284.917 45.3359 282.231 43.8905 280.441 42.3006C278.65 40.7106 277.755 38.9762 277.755 37.2417C277.755 35.5072 278.732 33.7005 280.685 31.8937C282.638 30.1592 285.324 28.6416 288.579 27.2684C291.834 25.9676 295.578 24.8835 299.647 24.0886C303.716 23.2936 308.111 22.7877 312.587 22.5709C317.063 22.3541 321.701 22.4263 326.259 22.86C330.816 23.2936 334.804 24.0886 338.222 25.0281C341.64 26.0398 344.488 27.2684 346.604 28.7138C348.72 30.1592 350.104 31.8214 350.511 33.5559C351.162 35.3627 350.673 37.2417 349.127 39.0484ZM290.207 32.9055C288.823 34.2063 288.253 35.4349 288.253 36.7358C288.253 37.9644 288.986 39.193 290.288 40.3493C291.59 41.4333 293.543 42.4451 295.985 43.3124C298.426 44.1073 301.437 44.7578 304.937 45.1914C308.436 45.5527 312.017 45.625 315.516 45.4805C319.016 45.3359 322.434 44.9023 325.526 44.1796C328.619 43.5292 331.467 42.6619 333.746 41.6502C336.025 40.6384 337.896 39.4098 339.036 38.1089C340.175 36.8081 340.582 35.5072 340.256 34.2064C340.012 32.9778 339.036 31.8214 337.571 30.7374C336.106 29.7256 334.071 28.7861 331.63 28.0634C329.188 27.3407 326.259 26.7625 323.003 26.4735C319.748 26.1844 316.411 26.1121 313.156 26.2567C309.901 26.4012 306.727 26.8348 303.797 27.413C300.868 27.9911 298.101 28.7861 295.822 29.7256C293.462 30.5206 291.59 31.6769 290.207 32.9055ZM326.831 36.7358C326.587 37.0249 326.18 37.2417 325.773 37.4585C325.285 37.6754 324.715 37.8199 324.146 37.9644C323.495 38.109 322.843 38.1812 322.192 38.1812C321.541 38.1812 320.809 38.1812 320.076 38.109L316.984 37.7476L315.845 38.9762C315.6 39.2653 315.193 39.4821 314.705 39.6989C314.217 39.9157 313.647 40.0603 313.078 40.2048C312.426 40.3493 311.775 40.4216 311.124 40.4216C310.392 40.4216 309.741 40.4216 309.008 40.3493C308.357 40.2771 307.706 40.1325 307.218 39.988C306.73 39.8434 306.323 39.6266 306.079 39.4098C305.835 39.193 305.672 38.9039 305.59 38.6871C305.59 38.398 305.672 38.1812 305.916 37.8922L307.137 36.6636L304.044 36.3022C303.393 36.2299 302.742 36.0854 302.254 35.9409C301.765 35.7963 301.358 35.5795 301.114 35.3627C300.87 35.1459 300.707 34.9291 300.707 34.64C300.707 34.4232 300.789 34.1341 301.033 33.845C301.277 33.556 301.684 33.3391 302.172 33.1946C302.661 32.9778 303.23 32.8333 303.8 32.6887C304.37 32.5442 305.021 32.4719 305.753 32.4719C306.404 32.4719 307.137 32.4719 307.788 32.5442L310.799 32.8333L311.938 31.6769C312.182 31.4601 312.589 31.171 312.996 31.0265C313.484 30.8097 313.973 30.6652 314.624 30.5206C315.194 30.3761 315.845 30.3038 316.577 30.3038C317.228 30.3038 317.961 30.3038 318.612 30.3761C319.263 30.4483 319.832 30.5929 320.321 30.7374C320.809 30.882 321.216 31.0988 321.46 31.3156C321.704 31.5324 321.948 31.7492 321.948 32.0383C321.948 32.2551 321.867 32.5442 321.623 32.761L320.483 33.9173L323.576 34.2064C324.227 34.2787 324.878 34.4232 325.366 34.5677C325.855 34.7123 326.262 34.9291 326.587 35.1459C326.913 35.3627 327.075 35.5795 327.075 35.8686C327.157 36.2299 327.075 36.4468 326.831 36.7358ZM462.249 220.591C462.086 221.313 461.598 222.036 460.947 222.614C460.296 223.192 459.482 223.626 458.505 223.987C457.529 224.349 456.389 224.565 455.25 224.565C454.029 224.638 452.809 224.565 451.506 224.276C450.204 223.987 449.065 223.626 448.007 223.12C446.949 222.614 446.135 222.036 445.403 221.386C444.752 220.735 444.263 220.012 443.938 219.29C443.694 218.567 443.612 217.772 443.857 217.049L448.17 202.668C448.414 201.945 448.821 201.367 449.472 200.861C450.123 200.355 450.855 199.921 451.832 199.632C452.727 199.343 453.785 199.126 454.924 199.054C456.064 198.982 457.203 199.054 458.424 199.271C459.645 199.488 460.784 199.849 461.76 200.283C462.737 200.716 463.632 201.294 464.283 201.873C464.934 202.451 465.504 203.174 465.748 203.824C466.074 204.547 466.155 205.197 465.911 205.92L462.249 220.591ZM155.195 44.1073C155.764 44.1073 156.497 44.0351 157.148 43.8905L198.408 36.0854C198.652 36.0854 198.978 36.0131 199.222 35.9408C199.344 35.9047 199.487 35.8505 199.629 35.7963C199.771 35.7421 199.914 35.6879 200.036 35.6518C200.151 35.6006 200.256 35.5585 200.355 35.519L200.355 35.519C200.534 35.447 200.692 35.3838 200.85 35.2904C201.094 35.1459 201.338 35.0013 201.501 34.8568C201.559 34.8056 201.616 34.7635 201.67 34.724C201.769 34.652 201.855 34.5888 201.908 34.4954C201.948 34.4232 201.989 34.369 202.03 34.3148L202.03 34.3146C202.071 34.2604 202.111 34.2063 202.152 34.1341C202.233 33.9896 202.233 33.9173 202.233 33.7728C202.233 33.6669 202.19 33.5999 202.134 33.5148C202.114 33.4837 202.092 33.4501 202.071 33.4114L191.491 20.8364C191.328 20.5474 190.758 20.3306 190.107 20.186C189.456 20.0415 188.561 20.0415 187.666 20.0415L187.554 20.0505C186.69 20.12 185.757 20.195 184.899 20.4028C184.004 20.6196 183.19 20.9087 182.62 21.2701L151.614 41.6502L151.126 42.0838C150.963 42.2283 150.881 42.3729 150.8 42.5174C150.719 42.6619 150.719 42.8065 150.8 42.951L150.812 42.9732C150.821 42.9895 150.83 43.0067 150.839 43.0244L150.839 43.0245C150.911 43.1624 151.001 43.3352 151.207 43.4569C151.428 43.6533 151.649 43.7311 151.991 43.8514L152.102 43.8905C152.509 43.9628 152.997 44.035 153.485 44.1073L153.486 44.1073H155.195ZM167.402 38.1089L185.062 26.1844L191.003 33.6282L167.402 38.1089ZM312.588 214.737C311.774 215.243 311.123 215.893 310.716 216.616C310.228 217.338 310.065 218.061 310.065 218.712C310.146 219.434 310.39 220.157 310.879 220.807C311.285 221.458 312.018 222.036 312.832 222.542C313.646 223.048 314.704 223.481 315.843 223.698L444.263 251.233C451.181 252.678 458.098 253.257 464.609 252.895C471.119 252.534 477.223 251.378 482.432 249.426C487.64 247.475 492.035 244.873 495.29 241.693C498.545 238.514 500.661 234.828 501.312 230.708L507.823 191.899C507.904 191.177 507.741 190.526 507.416 189.876C507.09 189.298 506.521 188.647 505.788 188.069C505.056 187.491 504.16 186.985 503.184 186.551C502.207 186.118 501.068 185.829 499.847 185.612L426.522 172.892C422.209 172.17 418.058 171.23 414.152 170.074C410.327 168.918 406.665 167.617 403.247 166.099C399.829 164.654 396.736 162.991 393.969 161.257C391.202 159.522 388.761 157.643 386.645 155.62L345.14 116.666L305.996 79.881C305.785 79.6315 305.514 79.4897 305.182 79.3162C305.129 79.2886 305.075 79.2602 305.019 79.2305C304.694 79.086 304.205 78.9414 303.717 78.7969C303.229 78.7246 302.659 78.6524 302.089 78.5801H300.299L249.273 80.965C248.296 80.965 247.238 80.965 246.343 80.8927C245.366 80.8205 244.552 80.6759 243.739 80.4591C243.006 80.3146 242.274 80.0255 241.704 79.7364C241.134 79.4473 240.646 79.086 240.321 78.7246L207.768 40.1325C207.524 39.9157 207.198 39.6989 206.791 39.5543C206.384 39.3375 205.815 39.2652 205.245 39.193C204.675 39.1207 204.024 39.1207 203.373 39.1207C202.722 39.1207 202.071 39.193 201.339 39.3375L138.024 51.5511C137.779 51.6234 137.454 51.6956 137.129 51.7679L137.128 51.7679C137.037 51.7948 136.935 51.8318 136.826 51.8712C136.642 51.9378 136.438 52.0117 136.233 52.057C136.07 52.1293 135.928 52.1835 135.786 52.2377C135.643 52.2919 135.501 52.3461 135.338 52.4184C135.012 52.5629 134.768 52.7074 134.524 52.852L11.0679 134.083C7.40575 136.541 4.63876 138.998 2.76698 141.455C0.8952 143.984 0 146.369 0 148.61C0 150.85 0.976582 152.874 3.01113 154.608C5.04567 156.343 8.0568 157.716 12.1259 158.583L277.268 215.315C278.407 215.604 279.547 215.676 280.686 215.604C281.825 215.532 282.965 215.315 284.023 215.026C284.999 214.664 285.976 214.231 286.79 213.725C287.603 213.219 288.254 212.569 288.743 211.846C289.231 211.195 289.394 210.473 289.394 209.75C289.394 209.1 289.15 208.377 288.743 207.799C288.336 207.221 287.766 206.642 286.952 206.209C286.139 205.775 285.162 205.414 284.104 205.197L181.075 183.805L246.343 166.171C247.482 165.882 248.703 165.738 249.842 165.665C250.982 165.593 252.04 165.665 253.097 165.882C254.155 166.099 255.051 166.388 255.864 166.822C256.678 167.183 257.329 167.761 257.736 168.339C258.876 170.074 260.666 171.519 262.863 172.676C265.061 173.832 267.746 174.699 270.676 175.277C273.606 175.855 276.78 176.072 280.035 175.928C283.29 175.783 286.627 175.277 289.801 174.41L311.855 168.195C312.343 168.05 312.913 167.906 313.483 167.833C313.768 167.797 314.052 167.779 314.337 167.761C314.622 167.743 314.907 167.725 315.192 167.689C315.761 167.617 316.331 167.617 316.901 167.689L318.61 167.906C319.18 167.978 319.749 168.123 320.237 168.267C320.438 168.356 320.639 168.433 320.834 168.508C321.114 168.615 321.381 168.718 321.621 168.845C322.028 169.062 322.435 169.279 322.76 169.568L322.761 169.568C323.086 169.857 323.411 170.146 323.656 170.435L368.66 222.831L322.028 213.147C320.889 212.858 319.749 212.785 318.61 212.858C317.471 212.93 316.413 213.147 315.355 213.436C314.297 213.797 313.401 214.231 312.588 214.737ZM393.644 227.962L337.816 166.316C337.084 165.521 336.188 164.726 335.049 164.003C334.072 163.353 333.014 162.702 331.794 162.124C330.654 161.618 329.352 161.112 327.969 160.679C326.667 160.317 325.202 159.956 323.656 159.667C322.109 159.378 320.563 159.161 319.017 159.089C317.471 159.017 315.843 159.017 314.297 159.089C312.75 159.161 311.204 159.306 309.658 159.522C308.112 159.739 306.565 160.028 305.1 160.462L283.453 166.46C282.314 166.749 281.093 166.894 279.953 166.966C278.814 167.039 277.675 166.966 276.617 166.749C275.64 166.533 274.664 166.244 273.85 165.81C273.036 165.376 272.385 164.87 271.978 164.292C270.757 162.63 269.048 161.257 266.851 160.173C264.735 159.089 262.131 158.294 259.364 157.788C256.597 157.282 253.586 157.065 250.493 157.21C247.401 157.354 244.227 157.86 241.134 158.655L161.38 179.758L136.233 174.555L335.863 122.954L373.136 159.595C375.74 162.124 378.751 164.509 382.169 166.749C385.668 169.062 389.493 171.158 393.725 173.037C398.039 174.988 402.677 176.65 407.56 178.168C412.524 179.686 417.814 180.914 423.267 181.926L489.186 193.706L482.187 227.023C481.618 229.48 480.316 231.648 478.281 233.527C476.246 235.406 473.642 236.996 470.468 238.08C467.294 239.236 463.714 239.887 459.807 240.103C455.982 240.32 451.832 240.031 447.681 239.164L393.644 227.962ZM118.004 170.797L100.018 167.039L301.438 116.883C301.836 116.824 302.126 116.717 302.44 116.602C302.511 116.575 302.584 116.549 302.659 116.522L303.636 116.088C303.961 115.944 304.205 115.799 304.449 115.582C304.694 115.438 304.856 115.221 305.019 115.004C305.182 114.787 305.263 114.571 305.345 114.354L305.345 114.354C305.426 114.137 305.426 113.92 305.426 113.703C305.426 113.486 305.345 113.27 305.263 113.053C305.182 112.908 305.019 112.692 304.856 112.475C304.449 112.041 303.961 111.752 303.31 111.463C302.659 111.174 301.927 111.029 301.113 110.885C300.299 110.74 299.485 110.668 298.59 110.74C297.695 110.74 296.799 110.885 295.986 111.102L159.997 144.49L149.01 120.786C152.835 120.569 156.741 120.208 160.646 119.846L160.648 119.846C164.208 119.524 167.768 119.143 171.385 118.757C171.82 118.711 172.256 118.664 172.692 118.618C174.227 118.427 175.773 118.246 177.331 118.064C179.904 117.764 182.508 117.46 185.144 117.1C186.128 116.963 187.121 116.826 188.121 116.688C191.339 116.244 194.63 115.789 197.921 115.293C206.791 113.992 215.743 112.186 224.695 110.018C233.566 107.849 242.355 105.465 250.982 102.791C259.445 100.189 267.746 97.3703 275.803 94.5518C283.697 91.7332 291.347 88.9147 298.59 86.1684L329.922 116.955L118.004 170.797ZM219.568 69.4741L228.927 81.2541C229.578 82.1213 230.636 82.9163 231.938 83.7835C233.159 84.434 234.705 85.0121 236.414 85.4457C238.123 85.8794 240.076 86.1684 242.111 86.3852C244.227 86.6021 246.424 86.6021 248.703 86.5298L284.104 84.8676C277.512 87.3248 270.595 89.7097 263.596 92.0946C256.516 94.5518 249.191 96.8644 241.785 99.0325C234.298 101.201 226.73 103.224 219.161 104.959C211.593 106.765 204.024 108.211 196.618 109.295C192.062 109.945 187.668 110.523 183.274 111.101L183.272 111.102C178.959 111.68 174.645 112.186 170.414 112.619C166.639 113.014 162.865 113.348 159.152 113.677C158.782 113.71 158.412 113.743 158.044 113.776C153.974 114.065 150.068 114.354 146.162 114.643L138.105 97.1535L168.542 90.5046C170.169 90.1433 171.797 89.7097 173.262 89.276C174.727 88.8424 176.11 88.3365 177.412 87.7584C178.714 87.1802 179.935 86.6021 180.993 85.9516C182.133 85.3735 183.109 84.723 183.923 84.0003L192.875 76.6288C193.282 76.2674 193.77 75.9784 194.258 75.6893C194.621 75.4749 195.027 75.3002 195.479 75.1064C195.636 75.0389 195.799 74.969 195.967 74.8943C196.537 74.6052 197.188 74.3884 197.921 74.1716C198.653 73.9548 199.385 73.738 200.118 73.5935L219.568 69.4741ZM124.189 67.1614L142.418 54.8755L198.979 43.8905L215.987 65.2824L196.781 69.3295C195.316 69.6186 193.852 69.98 192.468 70.4136C191.085 70.8472 189.782 71.2808 188.562 71.7867C187.341 72.2203 186.202 72.7985 185.144 73.3767C184.167 73.9548 183.19 74.6052 182.377 75.2557L173.262 82.4827C172.855 82.844 172.367 83.2054 171.797 83.4944L171.797 83.4946C171.227 83.7836 170.658 84.0727 170.007 84.3617C169.763 84.4427 169.508 84.5339 169.247 84.6276C168.808 84.7846 168.349 84.9486 167.891 85.0844C167.158 85.3012 166.426 85.518 165.612 85.6625L135.663 92.0946L124.189 67.1614ZM82.4398 163.425L22.8683 151.067C20.4268 150.561 18.5551 149.694 17.2529 148.682C15.9508 147.67 15.2998 146.442 15.2184 145.068C15.137 143.695 15.7067 142.25 16.7647 140.732C17.8226 139.215 19.5316 137.697 21.7289 136.179L48.7477 117.967C52.1658 118.545 55.9093 119.051 59.9784 119.557C64.0475 120.063 68.4421 120.497 73.0809 120.858C77.801 121.292 82.7653 121.581 88.0551 121.798C93.345 122.087 98.9603 122.231 104.901 122.231L115.725 155.259L82.4398 163.425ZM104.25 80.6036L114.423 73.738L131.757 115.293C131.117 115.329 130.496 115.347 129.886 115.365C129.255 115.383 128.634 115.401 128.014 115.438C127.403 115.438 126.793 115.456 126.183 115.474C125.572 115.492 124.962 115.51 124.351 115.51C123.741 115.51 123.151 115.528 122.561 115.546C121.971 115.564 121.381 115.582 120.771 115.582C119.631 115.655 118.411 115.655 117.271 115.655L104.25 80.6036ZM57.7811 111.897L93.5891 87.7584L102.704 115.51C98.0651 115.365 93.6705 115.221 89.4386 115.004C85.2882 114.787 81.3004 114.498 77.5569 114.209C73.8133 113.848 70.3139 113.486 66.9772 113.125C63.722 112.764 60.6295 112.33 57.7811 111.897ZM134.132 121.593L134.361 121.581L145.429 147.959L130.699 151.573L119.713 122.087C120.323 122.087 120.913 122.069 121.503 122.05C122.093 122.032 122.683 122.014 123.293 122.014C123.904 121.978 124.514 121.96 125.125 121.942C125.735 121.924 126.345 121.906 126.956 121.87C127.566 121.834 128.176 121.816 128.787 121.798C129.397 121.779 130.007 121.761 130.618 121.725C131.767 121.725 132.915 121.661 134.132 121.593Z" fill="#CFE1FC"/>
</svg>
